<?xml version="1.0" standalone="no"?>
<!DOCTYPE svg PUBLIC "-//W3C//DTD SVG 20010904//EN"
 "http://www.w3.org/TR/2001/REC-SVG-20010904/DTD/svg10.dtd">
<svg version="1.0" xmlns="http://www.w3.org/2000/svg"
 width="512.000000pt" height="512.000000pt" viewBox="0 0 512.000000 512.000000"
 preserveAspectRatio="xMidYMid meet" fill='#000000'>

<g transform="translate(0.000000,512.000000) scale(0.100000,-0.100000)"
fill="#000000" stroke="none">
<path d="M1980 4668 c-81 -29 -53 -10 -597 -408 -251 -184 -490 -357 -529
-385 -40 -27 -87 -68 -105 -90 -140 -175 -118 -436 49 -587 l40 -36 -35 -34
c-111 -107 -151 -275 -103 -430 11 -35 56 -124 100 -198 90 -150 150 -270 330
-660 315 -683 480 -962 699 -1180 123 -122 193 -171 300 -207 66 -22 69 -22
732 -23 l667 0 89 45 c49 24 135 75 190 112 359 240 566 537 645 922 15 77 23
2715 8 2816 -22 145 -111 264 -247 328 -64 30 -75 32 -178 32 -127 -1 -182
-19 -271 -91 l-52 -42 -28 29 c-16 17 -63 47 -104 67 -72 36 -77 37 -185 37
-128 -1 -182 -19 -271 -91 l-52 -42 -28 29 c-16 17 -63 47 -104 67 -72 36 -77
37 -185 37 -128 -1 -182 -19 -271 -91 l-52 -42 -28 29 c-16 17 -62 47 -103 67
-65 32 -83 37 -165 39 -75 3 -102 0 -156 -19z m203 -199 c49 -13 105 -63 128
-114 17 -37 19 -77 19 -503 0 -482 1 -489 44 -524 27 -22 94 -23 125 -2 50 35
51 49 51 546 0 461 0 463 23 503 62 110 228 137 324 52 74 -65 73 -56 73 -577
0 -499 -1 -487 50 -527 22 -18 92 -16 119 3 50 35 51 49 51 546 0 461 0 463
23 503 62 110 228 137 324 52 74 -65 73 -56 73 -575 0 -482 1 -489 44 -524 27
-22 94 -23 125 -2 50 35 51 49 51 545 l0 462 25 43 c45 77 152 119 240 95 53
-14 113 -65 136 -115 18 -39 19 -99 19 -1378 0 -905 -3 -1362 -11 -1414 -22
-162 -98 -341 -200 -477 -113 -150 -300 -307 -481 -402 l-86 -45 -629 2 -628
3 -69 34 c-229 113 -457 460 -826 1261 -161 349 -267 561 -338 673 -75 118
-87 149 -87 224 0 52 4 68 30 104 61 87 190 119 274 67 21 -13 149 -138 285
-278 136 -140 261 -261 278 -268 41 -17 79 -8 114 29 l29 30 3 477 c2 262 0
496 -3 520 -4 27 -17 55 -35 75 -49 55 -66 49 -421 -132 -279 -142 -323 -161
-365 -161 -120 0 -214 100 -214 226 0 44 28 111 56 135 15 13 718 526 1037
757 81 58 143 73 220 51z m-493 -1384 c0 -140 -2 -255 -4 -255 -2 0 -77 77
-168 170 l-164 171 161 84 c88 46 163 84 168 85 4 0 7 -115 7 -255z"/>
</g>
</svg>
